<?xml version="1.0" encoding="UTF-8"?>
<svg id="Camada_1" xmlns="http://www.w3.org/2000/svg" version="1.1" viewBox="0 0 197.98 75.85">
  <!-- Generator: Adobe Illustrator 30.6.0, SVG Export Plug-In . SVG Version: 2.1.4 Build 109)  -->
  <defs>
    <style>
      .st0 {
        fill-rule: evenodd;
      }

      .st0, .st1 {
        fill: #d2d2d2;
      }
    </style>
  </defs>
  <path class="st0" d="M99.04,0c1.4,0,2.7.06,3.57.17.75.1,2.07.37,2.93.59.86.22,2.14.63,2.84.91.7.28,1.81.79,2.48,1.14.67.35,1.7.97,2.3,1.37.6.4,1.44,1.02,1.88,1.37.43.35,1.19,1.03,1.68,1.5.49.47,1.3,1.35,1.8,1.95.5.6,1.24,1.58,1.64,2.18.4.6,1.02,1.63,1.37,2.3.35.67.86,1.78,1.14,2.48.28.7.68,1.98.9,2.84.22.87.49,2.19.59,2.93.11.8.19,2.2.19,3.42s-.08,2.61-.19,3.42c-.11.75-.37,2.07-.59,2.93-.22.87-.63,2.15-.91,2.84-.28.7-.79,1.81-1.14,2.48-.35.67-.96,1.7-1.36,2.3-.4.6-1.02,1.44-1.37,1.88-.35.43-1.03,1.19-1.5,1.68-.47.49-1.35,1.3-1.95,1.8-.6.5-1.58,1.24-2.18,1.64-.6.4-1.63,1.02-2.3,1.37-.67.35-1.78.86-2.48,1.14-.7.28-1.98.68-2.84.9-.86.22-2.18.49-2.93.59-.82.11-2.19.19-3.45.19-1.17,0-2.64-.08-3.36-.18-.7-.1-1.95-.35-2.78-.56-.83-.21-2.14-.62-2.9-.91-.76-.3-1.93-.83-2.6-1.18-.67-.35-1.7-.97-2.3-1.37-.6-.4-1.44-1.02-1.87-1.37-.43-.35-1.19-1.03-1.68-1.5-.49-.47-1.3-1.35-1.8-1.95-.5-.6-1.24-1.58-1.64-2.18-.4-.6-1.01-1.63-1.36-2.3-.35-.67-.86-1.78-1.14-2.48-.28-.7-.68-1.98-.91-2.84-.22-.87-.49-2.19-.59-2.93-.11-.8-.19-2.2-.19-3.42s.08-2.62.18-3.36c.1-.72.35-1.98.55-2.81.2-.83.6-2.11.89-2.84.29-.73.73-1.74.98-2.24.25-.5.7-1.32,1-1.81.3-.5.93-1.42,1.4-2.06.47-.63,1.38-1.69,2.01-2.34.63-.66,1.64-1.59,2.24-2.08.6-.48,1.5-1.15,2-1.48.5-.33,1.48-.91,2.18-1.28.7-.37,1.9-.91,2.66-1.21.76-.3,2.07-.71,2.9-.92.83-.21,2.03-.45,2.66-.54.63-.09,2.14-.17,3.36-.18ZM95.5,4.26l-.85.16c2.11,1.07,4,2.23,5.57,3.28l2.85,1.91v2.12s-3.84,2.84-3.84,2.84l-1.92,4.79h-5.86s0,3.81,0,3.81l5.81,1.94v2s-2.12,0-2.12,0l-9.53-3.81-1.89-7.14v-4.6c1.8-1.81,1.93-1.99,1.93-2.36v-.42c-1.17,1.12-1.89,1.86-2.34,2.36-.45.5-1.21,1.48-1.68,2.18-.47.7-1.12,1.81-1.46,2.48-.33.67-.84,1.92-1.12,2.78s-.63,2.25-.77,3.09c-.18,1.08-.26,2.05-.26,3.39,0,1.03.06,2.34.13,2.9.08.57.24,1.46.37,2,.12.53.37,1.4.55,1.94.18.53.62,1.59.98,2.36.37.76.97,1.85,1.34,2.42.37.57.93,1.36,1.25,1.75.32.4,1.09,1.23,1.71,1.84.62.61,1.4,1.32,1.73,1.58.33.26,1.09.79,1.69,1.18.6.39,1.69.99,2.42,1.34.73.34,1.85.79,2.48.99.63.2,1.69.48,2.36.61.67.13,1.45.26,1.73.28l.52.04c2.89-6.38,3.73-8.26,3.73-8.29,0-.03-.84-.74-1.88-1.57l-1.88-1.51v-3.99s1.94-1.94,1.94-1.94v-1.94s1.87-1.87,1.87-1.87h3.99s3.87,3.87,3.87,3.87h2s3.75,1.87,3.75,1.87v2.12s-2.64,5.26-2.64,5.26c-2.14,2.07-3.9,3.51-6.08,5.14-1.9,1.43-3.43,2.62-3.39,2.64.04.02.67-.1,1.4-.26.73-.16,1.88-.5,2.54-.75.67-.25,1.67-.68,2.24-.97.57-.28,1.63-.91,2.36-1.4.81-.54,1.87-1.41,2.71-2.22.76-.73,1.71-1.77,2.11-2.3.4-.53.99-1.38,1.3-1.88.31-.5.75-1.29.99-1.75.23-.47.62-1.36.85-2,.24-.63.54-1.58.68-2.12.13-.53.31-1.35.38-1.81.08-.47.17-1.43.22-2.15l.08-1.3h-1.88c0-1.8-.02-1.85-.97-3.75l-.97-1.94v-6.41c-1.19-1.55-2.11-2.54-2.8-3.21-.69-.67-1.78-1.58-2.4-2.02-.63-.45-1.85-1.17-2.72-1.6-.86-.43-2.05-.95-2.63-1.15l-1.06-.37v1.09h-3.87v-1.81c-1.26,0-1.74-.02-1.88-.05-.13-.02-.84,0-1.57.06-.73.06-1.71.18-2.18.26ZM97.25,21.28h3.87v1.94h-3.87v-1.94Z"/>
  <path class="st1" d="M99.19,60.4c-6.61,0-13.63,2.2-13.63,6.27,0,3.55,5.36,5.7,11.14,6.17-.02,1.63,0,3.01.12,3.01.28,0,5.94-4.12,5.94-4.12l-5.94-4.12s-.04,1.24-.08,2.76c-5.43-.46-8.71-2.35-8.71-3.69,0-1.55,4.34-3.8,11.15-3.8s11.15,2.25,11.15,3.8c0,.88-1.54,2.23-4.93,3.08l.6,2.4c4.32-1.09,6.8-3.09,6.8-5.48,0-4.07-7.02-6.27-13.63-6.27Z"/>
  <g>
    <path class="st1" d="M4.37,17.08c2.74-4.33,7.79-6.03,12.29-4.3,4.18,1.61,6.84,5.94,6.25,10.88-.09.72.73,2.06,1.36,2.05,2.68-.03,2.35-9.13-3.05-13.59-3.63-3-8.28-3.78-12.7-2.11C3.68,11.84.68,16.38.11,20.97c-1.17,9.44,7.23,15.1,7.92,13.05.17-.49.1-1.64-.05-2.25-5.29-3.07-6.59-9.34-3.61-14.68ZM34.83,17.75l-.86,4.23,8.73-5.71-8.81-5.74.99,4.21-6.36.02v3.03s6.31-.04,6.31-.04ZM27.73,33.58l4.21,9.06c.2.43,1.25.86,1.69.73s1.08-1.43.85-1.94l-4.08-9.01c.39-.55,2-1.07,2.76-.9.68.16,1.63,1.03,2,1.84l2.79,6.16c.22.49,1.25.99,1.68.84s1.11-1.47.91-1.91l-3.11-7c.36-.73,2.34-1.17,3.13-.82.63.28,1.35,1.23,1.73,2.06l5.18,11.37c.87,1.9,2.16,4.63,1.73,6.66-.62,2.92-.52,5.75,2.24,7.5,1.8-1.19,1.28-3.02.12-4.43.86-2.86.64-5.62-.39-8.42l-6.39-14.07c-.82-1.8-2.29-3.02-3.75-3.7-2.1-.23-3.86.28-5.71,1.35-2.35-.61-4.84-.49-6.99,1.02-2.14-.56-4.27-.66-6.17.55l-3.29-6.76c-1.05-2.16-4.42-2.31-6.33-1.14-1.57.96-2.9,3.64-1.91,5.84l5.68,12.57-2.81,2.25c-2.69,2.16-2.36,5.01-.98,7.77,1.19,2.39,2.2,4.88,4.52,6.54l10.05,7.23c1.28.92,1.08,3.77,3.18,3.84s.54-4.7-1.01-5.85l-11.25-8.29c-2.34-1.72-2.91-5.13-3.99-7.8l3.54-2.92,3.67,7.94c.23.49,1.69,1.15,1.99.77s.55-1.1.69-1.78l-10.69-23.3c-.08-1.04.45-2.24,1.39-2.63.67-.28,1.93.52,2.39,1.34l8.89,19.56c.55.36,1.28.68,1.74.7s1.04-1.43.83-1.88l-5.06-11.24c1.2-1.14,3.69-1.14,4.35.29Z"/>
    <g>
      <path class="st1" d="M27.73,33.58c-.66-1.42-3.15-1.43-4.35-.29l5.06,11.24c.2.45-.38,1.89-.83,1.88s-1.19-.34-1.74-.7l-8.89-19.56c-.46-.83-1.72-1.63-2.39-1.34-.94.39-1.47,1.59-1.39,2.63l10.69,23.3c-.14.68-.38,1.39-.69,1.78s-1.76-.27-1.99-.77l-3.67-7.94-3.54,2.92c1.07,2.67,1.65,6.07,3.99,7.8l11.25,8.29c1.55,1.15,3.11,5.92,1.01,5.85s-1.91-2.93-3.18-3.84l-10.05-7.23c-2.31-1.67-3.33-4.16-4.52-6.54-1.38-2.76-1.72-5.62.98-7.77l2.81-2.25-5.68-12.57c-.99-2.2.34-4.89,1.91-5.84,1.91-1.17,5.28-1.02,6.33,1.14l3.29,6.76c1.91-1.2,4.04-1.11,6.17-.55,2.15-1.51,4.64-1.63,6.99-1.02,1.85-1.07,3.61-1.57,5.71-1.35,1.46.67,2.94,1.9,3.75,3.7l6.39,14.07c1.03,2.8,1.25,5.56.39,8.42,1.16,1.41,1.68,3.24-.12,4.43-2.76-1.74-2.86-4.57-2.24-7.5.43-2.03-.86-4.76-1.73-6.66l-5.18-11.37c-.38-.83-1.09-1.78-1.73-2.06-.79-.36-2.77.09-3.13.82l3.11,7c.2.45-.49,1.77-.91,1.91s-1.46-.36-1.68-.84l-2.79-6.16c-.37-.81-1.31-1.69-2-1.84-.76-.17-2.37.35-2.76.9l4.08,9.01c.23.51-.41,1.81-.85,1.94s-1.49-.3-1.69-.73l-4.21-9.06Z"/>
      <g>
        <path class="st1" d="M4.37,17.08c-2.98,5.34-1.68,11.61,3.61,14.68.15.61.22,1.77.05,2.25-.7,2.05-9.09-3.62-7.92-13.05.57-4.59,3.56-9.12,8.4-10.95,4.42-1.67,9.08-.89,12.7,2.11,5.4,4.46,5.73,13.57,3.05,13.59-.63,0-1.44-1.33-1.36-2.05.59-4.93-2.07-9.26-6.25-10.88-4.5-1.74-9.55-.04-12.29,4.3Z"/>
        <polygon class="st1" points="34.83 17.75 28.52 17.79 28.52 14.76 34.88 14.74 33.89 10.53 42.7 16.27 33.97 21.98 34.83 17.75"/>
      </g>
    </g>
  </g>
  <g>
    <path class="st1" d="M186.78,12.33c4.53.89,7.46,4.57,8.16,8.26.83,4.34-.73,8.54-4.4,10.84-.55.34-1.18,1.74-.85,2.22.27.4,1.15.7,1.78.8,5.07-3.21,7.34-8.78,6.23-14.54-1.13-5.26-5.33-9.83-11.13-10.65-4.15-.59-8.1,1.01-10.73,3.77-4.73,4.96-4.64,13.09-1.92,12.71,2.35-.33-.83-5.84,4.03-10.7,2.22-2.21,5.35-3.39,8.82-2.71ZM169.45,17.75l-.1-3.02-6.16.04.74-4.15-8.64,5.62,8.94,5.91-1.11-4.37,6.34-.04ZM169.84,34.37c.38-.83,1.52-1.98,2.2-1.9.75.08,1.98.47,2.66.75l-5.24,11.38.69,1.69c.16.38,1.23.07,1.75-.13l9.21-20.2c.55-.86,1.85-1.43,2.48-1.04.87.53,1.23,1.57,1.17,2.58l-10.76,23.46.95,1.63c.21.36,1.56-.32,1.77-.78l3.72-7.99,3.37,2.75c-1.36,8.93-8.58,10.91-15.15,16.28-.85.68-1.67,2.99-2.04,4.1-.17.52.8,1.92,1.32,1.75.41-.13,1.22-.71,1.43-1.11l1.34-2.68,10.17-7.24c2.25-1.6,3.32-4.1,4.53-6.48,1.34-2.62,1.91-5.68-.72-7.76l-2.99-2.37,5.72-12.76c.97-2.16-.54-4.8-2.05-5.72-1.92-1.17-4.82-1.08-6.1,1.1s-2.35,4.66-3.34,6.82c-2.05-1.1-4.12-1.17-6.18-.5-2.16-1.42-4.5-1.85-7-1-1.58-.95-3.68-1.76-5.54-1.37-1.23.26-3.03,1.66-3.69,3.1l-5.83,12.74c-1.09,2.38-2.09,5.24-1.7,7.84.61,4.05-1.07,4.17-.39,6.03.16.45,1.6.65,1.91.28,3.38-4.07.07-7.06,1.89-11.03l6.9-15.05c.68-1.48,3.53-1.15,4.36-.21l-3.16,6.94c-.24.53.27,1.83.75,2.04s1.64-.37,1.89-.92l2.64-5.92c.33-.73,1.25-1.77,1.92-1.93s2.15.27,2.97.69l-4.21,9.46c-.22.49.68,1.84,1.13,1.77s1.38-.61,1.62-1.14l3.65-7.97Z"/>
    <g>
      <path class="st1" d="M169.84,34.37l-3.65,7.97c-.24.53-1.17,1.07-1.62,1.14s-1.34-1.28-1.13-1.77l4.21-9.46c-.81-.42-2.27-.85-2.97-.69s-1.59,1.19-1.92,1.93l-2.64,5.92c-.25.55-1.41,1.13-1.89.92s-.99-1.51-.75-2.04l3.16-6.94c-.84-.93-3.68-1.27-4.36.21l-6.9,15.05c-1.82,3.97,1.48,6.95-1.89,11.03-.31.37-1.75.16-1.91-.28-.69-1.86,1-1.98.39-6.03-.39-2.6.61-5.45,1.7-7.84l5.83-12.74c.66-1.44,2.46-2.83,3.69-3.1,1.86-.4,3.96.42,5.54,1.37,2.5-.85,4.85-.42,7,1,2.06-.67,4.14-.6,6.18.5.99-2.17,2.07-4.67,3.34-6.82s4.19-2.26,6.1-1.1c1.51.92,3.02,3.56,2.05,5.72l-5.72,12.76,2.99,2.37c2.63,2.09,2.06,5.14.72,7.76-1.21,2.38-2.28,4.88-4.53,6.48l-10.17,7.24-1.34,2.68c-.2.4-1.01.98-1.43,1.11-.52.17-1.49-1.24-1.32-1.75.37-1.12,1.19-3.42,2.04-4.1,6.57-5.37,13.79-7.36,15.15-16.28l-3.37-2.75-3.72,7.99c-.21.46-1.56,1.15-1.77.78l-.95-1.63,10.76-23.46c.06-1.01-.29-2.05-1.17-2.58-.64-.39-1.94.18-2.48,1.04l-9.21,20.2c-.52.2-1.6.51-1.75.13l-.69-1.69,5.24-11.38c-.68-.28-1.91-.67-2.66-.75-.67-.07-1.81,1.07-2.2,1.9Z"/>
      <g>
        <path class="st1" d="M186.78,12.33c-3.47-.68-6.61.49-8.82,2.71-4.86,4.86-1.69,10.37-4.03,10.7-2.72.38-2.8-7.75,1.92-12.71,2.63-2.76,6.59-4.36,10.73-3.77,5.8.82,10,5.4,11.13,10.65,1.11,5.76-1.16,11.33-6.23,14.54-.63-.1-1.51-.4-1.78-.8-.33-.48.31-1.87.85-2.22,3.67-2.3,5.23-6.5,4.4-10.84-.71-3.69-3.64-7.38-8.16-8.26Z"/>
        <polygon class="st1" points="169.45 17.75 163.11 17.79 164.22 22.16 155.29 16.25 163.93 10.63 163.19 14.77 169.35 14.73 169.45 17.75"/>
      </g>
    </g>
  </g>
</svg>